Coordinates
version=1
nRows=54
nColumns=12
inDegrees=yes

Units are S.I. units (second, meters, Newtons, ...)
Angles are in degrees

endheader
time	SC_y	SC_z	SC_x	AC_y	AC_z	AC_x	GH_y	GH_z	GH_yy	EL_x	PS_y
       0.0              -22.78         -1.263          63.03          53.75          -4.39          2.651          69.91         -8.027          29.48          59.79          133.4
   0.04023              -22.78         -1.262          63.03          53.75         -4.392          2.651          69.91         -8.028          29.49           59.8          133.4
   0.08046              -22.78          -1.26          63.03          53.75         -4.395          2.651          69.92          -8.03           29.5          59.82          133.4
    0.1207              -22.78         -1.259          63.03          53.75         -4.397          2.651          69.92         -8.031          29.52          59.83          133.4
    0.1609              -22.78         -1.257          63.03          53.74         -4.399          2.651          69.92         -8.032          29.54          59.84          133.4
    0.2012              -22.79         -1.256          63.03          53.74         -4.402          2.652          69.93         -8.034          29.56          59.85          133.4
    0.2414              -22.79         -1.254          63.03          53.74         -4.405          2.652          69.93         -8.036          29.57          59.86          133.4
    0.2816              -22.79         -1.252          63.03          53.74         -4.408          2.652          69.94         -8.037          29.59          59.88          133.4
    0.3218              -22.79          -1.25          63.02          53.73         -4.411          2.652          69.94         -8.039          29.62          59.89          133.4
    0.3621               -22.8         -1.248          63.02          53.73         -4.414          2.653          69.95         -8.041          29.64          59.91          133.3
    0.4023               -22.8         -1.246          63.02          53.73         -4.418          2.653          69.95         -8.044          29.67          59.93          133.3
    0.4425              -22.81         -1.243          63.02          53.73         -4.422          2.653          69.96         -8.046          29.69          59.95          133.3
    0.4828              -22.81         -1.241          63.02          53.72         -4.426          2.654          69.96         -8.049          29.72          59.97          133.3
     0.523              -22.81         -1.238          63.01          53.72         -4.431          2.654          69.97         -8.051          29.75          59.99          133.3
    0.5632              -22.82         -1.235          63.01          53.71         -4.436          2.655          69.98         -8.054          29.79          60.02          133.3
    0.6035              -22.82         -1.231          63.01          53.71         -4.441          2.655          69.99         -8.058          29.83          60.04          133.3
    0.6437              -22.83         -1.227          63.01           53.7         -4.447          2.656           70.0         -8.061          29.87          60.07          133.3
    0.6839              -22.84         -1.223           63.0           53.7         -4.453          2.656          70.01         -8.065          29.91           60.1          133.3
    0.7242              -22.84         -1.219           63.0          53.69          -4.46          2.657          70.02         -8.069          29.96          60.14          133.2
    0.7644              -22.85         -1.214           63.0          53.69         -4.468          2.658          70.03         -8.074          30.01          60.17          133.2
    0.8046              -22.86         -1.209          62.99          53.68         -4.476          2.658          70.04         -8.079          30.07          60.22          133.2
    0.8448              -22.87         -1.203          62.99          53.67         -4.485          2.659          70.05         -8.084          30.13          60.26          133.2
    0.8851              -22.88         -1.197          62.98          53.66         -4.495           2.66          70.07          -8.09           30.2          60.31          133.2
    0.9253              -22.89          -1.19          62.98          53.65         -4.507          2.661          70.09         -8.097          30.28          60.37          133.1
    0.9655               -22.9         -1.182          62.97          53.64         -4.519          2.662           70.1         -8.105          30.37          60.43          133.1
     1.006              -22.91         -1.173          62.96          53.63         -4.533          2.664          70.13         -8.113          30.47           60.5          133.1
     1.046              -22.93         -1.163          62.95          53.62         -4.549          2.665          70.15         -8.123          30.57          60.57          133.0
     1.086              -22.94         -1.152          62.95           53.6         -4.566          2.667          70.17         -8.133           30.7          60.66          133.0
     1.126              -22.96         -1.139          62.93          53.58         -4.586          2.669           70.2         -8.145          30.83          60.76          132.9
     1.167              -22.98         -1.125          62.92          53.57         -4.609          2.671          70.24         -8.159          30.99          60.87          132.9
     1.207              -23.01         -1.109          62.91          53.54         -4.634          2.673          70.28         -8.174          31.17           61.0          132.8
     1.247              -23.04          -1.09           62.9          53.52         -4.664          2.676          70.32         -8.192          31.37          61.14          132.8
     1.287              -23.07         -1.069          62.88          53.49         -4.698          2.679          70.37         -8.213          31.61          61.31          132.7
     1.328              -23.11         -1.044          62.86          53.45         -4.738          2.683          70.43         -8.237          31.89           61.5          132.6
     1.368              -23.15         -1.014          62.83          53.42         -4.784          2.687           70.5         -8.265          32.21          61.73          132.5
     1.408               -23.2        -0.9799          62.81          53.37         -4.839          2.692          70.58         -8.298          32.59           62.0          132.3
     1.448              -23.27        -0.9388          62.77          53.31         -4.904          2.698          70.68         -8.337          33.04          62.32          132.2
     1.489              -23.34        -0.8897          62.73          53.25         -4.981          2.705           70.8         -8.384          33.58           62.7          132.0
     1.529              -23.43        -0.8302          62.69          53.17         -5.076          2.714          70.94         -8.441          34.23          63.17          131.8
     1.569              -23.54        -0.7575          62.63          53.07         -5.191          2.724          71.11         -8.511          35.03          63.73          131.5
     1.609              -23.67        -0.6677          62.56          52.95         -5.333          2.737          71.32         -8.597          36.02          64.43          131.2
     1.649              -23.84        -0.5559          62.47          52.79          -5.51          2.754          71.59         -8.704          37.25          65.31          130.8
      1.69              -24.06        -0.4149          62.35           52.6         -5.733          2.774          71.92         -8.839           38.8           66.4          130.2
      1.73              -24.33        -0.2358          62.21          52.36         -6.016            2.8          72.35          -9.01          40.77           67.8          129.6
      1.77              -24.67      -0.006431          62.02          52.05         -6.379          2.834          72.89         -9.229          43.29          69.59          128.7
      1.81              -25.12         0.2879          61.79          51.65         -6.845          2.877          73.59         -9.511          46.52          71.88          127.6
     1.851              -25.69         0.6638          61.49          51.14          -7.44          2.932          74.49         -9.871          50.65          74.81          126.2
     1.891               -26.4          1.136          61.11           50.5         -8.188            3.0          75.61         -10.32          55.85          78.49          124.4
     1.931              -27.27          1.712          60.64          49.72           -9.1          3.084          76.98         -10.87          62.18          82.98          122.3
     1.971              -28.28           2.38          60.11          48.81         -10.16          3.182          78.56         -11.51          69.52          88.18          119.8
     2.012              -29.37          3.103          59.53          47.83          -11.3          3.287          80.28          -12.2          77.46          93.82          117.1
     2.052              -30.46          3.826          58.95          46.86         -12.44          3.393          81.99          -12.9          85.41          99.45          114.3
     2.092              -31.47          4.494          58.41          45.95          -13.5           3.49          83.58         -13.54          92.75          104.7          111.8
     2.132              -32.34           5.07          57.95          45.17         -14.41          3.574          84.95         -14.09          99.08          109.1          109.7
